# xmcd
#
# Track frame offsets: 
#        150
#        14074
#        27538
#        41669
#        54570
#        69978
#        85296
#        101715
#        116182
#        130372
#        143562
#        158688
#        171407
#        185696
#        197588
#        213916
#        227775
#        244900
#        259351
#        273861
#
# Disc length: 3854 seconds
#
# Revision: 0
# Processed by: cddbd v1.5.2PL0 Copyright (c) Steve Scherf et al.
# Submitted via: ExactAudioCopy v1.1
#
DISCID=2d0f0c14
DTITLE=Various Artist - Oorlogsjaren Hits - CD 2
DYEAR=2019
DGENRE=Oldies
TTITLE0=Edith Piaf - La Vie En Rose
TTITLE1=Vera Lynn - We'll Meet Again
TTITLE2=Marlene Dietrich - Lili Marleen
TTITLE3=Nat "King" Cole - Besame Mucho
TTITLE4=Frank Sinatra - I Couldn't Sleep A Wink Last Night
TTITLE5=Jimmy Dorsey And His Orchestra - Amapola
TTITLE6=Doris Day - It's Magic
TTITLE7=Frankie Laine - We'll Be Together Again
TTITLE8=George Formby - Bless 'Em All
TTITLE9=Harry James and His Orchestra - I've Heard That Song Before
TTITLE10=Kay Kyser and His Orchestra - (I Got Spurs) Jingle Jangle Jingl
TTITLE10=e
TTITLE11=Al Bowlly - Who's Taking You Home Tonight
TTITLE12=Ambrose and His Orchestra - Lambeth Walk
TTITLE13=Nat Gonella and His Georgians - I'm Forever Blowing Bubbles
TTITLE14=Albert Ammons - Boogie Woogie Blues
TTITLE15=Artie Shaw and His Orchestra - Frenesi
TTITLE16=Stan Kenton - On The Sunny Side Of The Street
TTITLE17=The Two Leslies - (We're Gonna Hang Out) The Washing On The S
TTITLE17=iegfried Line
TTITLE18=Woody Herman And His Orchestra - Blues In The Night
TTITLE19=The Mills Brothers - You Always Hurt The One You Love
EXTD=
EXTT0=
EXTT1=
EXTT2=
EXTT3=
EXTT4=
EXTT5=
EXTT6=
EXTT7=
EXTT8=
EXTT9=
EXTT10=
EXTT11=
EXTT12=
EXTT13=
EXTT14=
EXTT15=
EXTT16=
EXTT17=
EXTT18=
EXTT19=
PLAYORDER=
